<?xml version="1.0" encoding="utf-8"?>
<svg viewBox="71.09996032714844 119.89997100830078 382.90008544921875 299.9000549316406" width="382.90008544921875" height="299.9000549316406" xmlns="http://www.w3.org/2000/svg"><g transform="matrix(1, 0, 0, 1, 0, 0)">
		<radialGradient id="SVGID_63_" cx="170.6463" cy="268.9836" r="125.9776" gradientUnits="userSpaceOnUse">
			<stop offset="0" style="stop-color:#FFF200"/>
			<stop offset="1" style="stop-color:#F47721"/>
		</radialGradient>
		<path class="st62" d="M267.5,404.4c-8.5-5.9-19.6-4.3-29.6-4.7c-16.5-0.7-32.9-1.8-49.3-3.7c-17.6-1.9-34.8-5.9-51.7-11.1&#10;&#9;&#9;&#9;c-7.1-2.2-14.5-5.6-21.9-8.2c-0.5-3.8-2-7.6-3-11.5c-2-7.2-3.4-14.5-5.3-21.8c24.7,7.5,49.8,12.5,75.5,15.2c25,2.7,59.3,6.5,83-3&#10;&#9;&#9;&#9;c4.5-1.8,6.2-10,0-10.9c-22.7-3.1-47.3,1.9-70.5,0.8c-26.6-1.2-52.9-6.2-78.6-13.2c-12.8-3.5-11.2-20.6-13.3-32&#10;&#9;&#9;&#9;c-2.4-13.2-5.1-26.2-8-39.3c-2.4-11.3-4.6-22.6-6.8-33.9c0.9,1.8,1.7,3.7,2.5,5.4c8.6,19.3,18.3,42.5,38.6,51.7&#10;&#9;&#9;&#9;c23.8,10.8,39.3-12.9,45.4-36.8c6.5,27.8,29.2,51.1,59.6,35.7c18.7-9.5,22.7-43.9,25.3-61.6c4.8-32.5,8.1-65.8,5.1-98.6&#10;&#9;&#9;&#9;c-0.2-2.2-3.6-3-4.1-0.6c-8.2,38.2-7.2,77.6-14.7,115.9c-5.1-8.2-10.7-15.6-14.4-25c-4.7-11.9-7.4-24.5-12.1-36.4&#10;&#9;&#9;&#9;c-1.7-4.4-8.1-3.8-8.3,1.1c-1.2,26.2-13.5,50.5-16.2,76.5c-0.2,1.5,2.2,2.1,2.8,0.8c5.5-12,9-24.9,12.6-37.6&#10;&#9;&#9;&#9;c1.6-5.9,3.7-11.9,5.5-17.9c4.4,19.5,11.1,41.2,28.1,48.1c-1.4,6.7-2.8,13.4-5.5,19.7c-7.8,18.1-29.7,14.6-41.6,4.1&#10;&#9;&#9;&#9;c-17.2-15-11.7-39.8-15.3-59.6c-0.6-3.1-4.8-2.5-5.7,0c-0.2,0.7-0.4,1.4-0.7,2.1c-1.3-0.3-2.9,0.5-2.8,2.1&#10;&#9;&#9;&#9;c0.6,17.2-4,32.9-13.1,47.3c-18.6,29.4-41.3-5.6-49.9-21.4c-12-21.9-17-51.2-33.7-69.8c-1.5-1.6-4.1-0.3-4.1,1.7&#10;&#9;&#9;&#9;c-0.2,7.7,1.5,15.5,4,23.1C81,244.2,88.2,290.8,96,337.1c0.3,1.9,1.8,3.3,3.5,4.1c0,7.9,1.4,15.6,2.9,23.3c0.6,3,1.1,6.3,1.9,9.4&#10;&#9;&#9;&#9;c-2.8-0.5-5.6-0.8-8.4-0.6c-1.7,0.1-3.3,2.1-2.1,3.7c6.6,9.5,17.5,13.3,28,17.6c17,6.9,34.7,11.3,52.7,14.6&#10;&#9;&#9;&#9;c16.9,3.1,34.1,4.4,51.2,5.5c12.9,0.8,30.3,5.1,42-1.6C271,411.2,270.6,406.6,267.5,404.4z" style="fill: rgb(204, 204, 204); opacity: 1;"/>
		<radialGradient id="SVGID_64_" cx="251.5137" cy="301.7657" r="27.7098" gradientUnits="userSpaceOnUse">
			<stop offset="0" style="stop-color:#FFF200"/>
			<stop offset="1" style="stop-color:#F47721"/>
		</radialGradient>
		<path class="st63" d="M268.2,330.4c-3.1-5.8-7.5-10-12.2-14.7c-5.9-5.9-13.2-9-8.4-18c5.2-9.6,16.4-18.3,16.7-29.6&#10;&#9;&#9;&#9;c0-1-1-1.8-1.9-1.5c-14.6,4.7-23.3,26.2-27.9,39.4c-0.6,1.6,0.1,3.5,1.2,4.7c8.4,8.5,16.7,18.9,26.6,25.5&#10;&#9;&#9;&#9;C266.2,338.8,270.1,334,268.2,330.4z" style="fill: rgb(204, 204, 204); opacity: 1;"/>
		<radialGradient id="SVGID_65_" cx="171.9346" cy="305.6194" r="25.7565" gradientUnits="userSpaceOnUse">
			<stop offset="0" style="stop-color:#FFF200"/>
			<stop offset="1" style="stop-color:#F47721"/>
		</radialGradient>
		<path class="st64" d="M192.1,313c-4.5-11.9-8-25.4-15-36.1c-0.9-1.4-3-1.8-4.5-1.2c-0.4-0.1-0.9,0.1-1.3,0.5&#10;&#9;&#9;&#9;c-8.2,8.7-12.9,19.9-19.2,29.9c-0.8,1.2-0.9,3.2,0,4.5c5.3,7.5,10.6,15.1,15.5,22.9c1.9,3,6.2,3,8.1,0c3.8-6.2,7.6-11.6,14.2-15&#10;&#9;&#9;&#9;C191.7,317.5,192.9,315,192.1,313z M171.6,322.6c-3.4-5-6.9-9.9-10.5-14.7c3.7-7.7,8.1-15.1,11-23.1c2.2,9.3,6.2,18.5,9.6,27.4&#10;&#9;&#9;&#9;C177.5,315,174.4,318.6,171.6,322.6z" style="fill: rgb(204, 204, 204); opacity: 1;"/>
		<radialGradient id="SVGID_66_" cx="138.8791" cy="214.3384" r="33.4659" gradientUnits="userSpaceOnUse">
			<stop offset="0" style="stop-color:#FFF200"/>
			<stop offset="1" style="stop-color:#F47721"/>
		</radialGradient>
		<path class="st65" d="M162.8,250.8c-11.8-24.5-22-49.8-33-74.7c-2.3-5.3-10.1-1.4-8.9,3.8c0.6,2.5-2.4,10.3-3.2,13&#10;&#9;&#9;&#9;c-1.6,5.2-1,11.4-1.3,16.7c-0.7,12.4-1.1,24.8-1.5,37.2c-0.1,2.6,4.2,3.2,4.6,0.6c1.7-12.6,3.5-25.2,4.8-37.8&#10;&#9;&#9;&#9;c0.5-4.4,1.9-8.9,3.3-13.3c4.3,10.5,8.6,21.1,13,31.5c4.5,10.8,7.3,22.7,19.2,27C162.1,255.8,163.7,252.8,162.8,250.8z" style="fill: rgb(204, 204, 204); opacity: 1;"/>
		<radialGradient id="SVGID_67_" cx="138.8638" cy="366.085" r="9.5942" gradientUnits="userSpaceOnUse">
			<stop offset="0" style="stop-color:#FFF200"/>
			<stop offset="1" style="stop-color:#F47721"/>
		</radialGradient>
		<path class="st66" d="M138.9,356.5c-5.2,0-9.6,4.4-9.6,9.6c0,5.2,4.4,9.6,9.6,9.6c5.2,0,9.6-4.4,9.6-9.6&#10;&#9;&#9;&#9;C148.5,360.9,144.1,356.5,138.9,356.5z" style="fill: rgb(204, 204, 204); opacity: 1;"/>
		<radialGradient id="SVGID_68_" cx="190.0982" cy="375.6787" r="9.5943" gradientUnits="userSpaceOnUse">
			<stop offset="0" style="stop-color:#FFF200"/>
			<stop offset="1" style="stop-color:#F47721"/>
		</radialGradient>
		<path class="st67" d="M190.1,366.1c-5.2,0-9.6,4.4-9.6,9.6c0,5.2,4.4,9.6,9.6,9.6c5.2,0,9.6-4.4,9.6-9.6&#10;&#9;&#9;&#9;C199.7,370.4,195.3,366.1,190.1,366.1z" style="fill: rgb(204, 204, 204); opacity: 1;"/>
		<radialGradient id="SVGID_69_" cx="258.6991" cy="383.6201" r="9.5943" gradientUnits="userSpaceOnUse">
			<stop offset="0" style="stop-color:#FFF200"/>
			<stop offset="1" style="stop-color:#F47721"/>
		</radialGradient>
		<path class="st68" d="M258.7,374c-5.2,0-9.6,4.4-9.6,9.6c0,5.2,4.4,9.6,9.6,9.6c5.2,0,9.6-4.4,9.6-9.6&#10;&#9;&#9;&#9;C268.3,378.4,263.9,374,258.7,374z" style="fill: rgb(204, 204, 204); opacity: 1;"/>
		<radialGradient id="SVGID_70_" cx="354.4563" cy="268.9836" r="125.9776" gradientUnits="userSpaceOnUse">
			<stop offset="0" style="stop-color:#FFF200"/>
			<stop offset="1" style="stop-color:#F47721"/>
		</radialGradient>
		<path class="st69" d="M257.6,404.4c8.5-5.9,19.6-4.3,29.6-4.7c16.5-0.7,32.9-1.8,49.3-3.7c17.6-1.9,34.8-5.9,51.7-11.1&#10;&#9;&#9;&#9;c7.1-2.2,14.5-5.6,21.9-8.2c0.5-3.8,2-7.6,3-11.5c2-7.2,3.4-14.5,5.3-21.8c-24.7,7.5-49.8,12.5-75.5,15.2c-25,2.7-59.3,6.5-83-3&#10;&#9;&#9;&#9;c-4.5-1.8-6.2-10,0-10.9c22.7-3.1,47.3,1.9,70.5,0.8c26.6-1.2,52.9-6.2,78.6-13.2c12.8-3.5,11.2-20.6,13.3-32&#10;&#9;&#9;&#9;c2.4-13.2,5.1-26.2,8-39.3c2.4-11.3,4.6-22.6,6.8-33.9c-0.9,1.8-1.7,3.7-2.5,5.4c-8.6,19.3-18.3,42.5-38.6,51.7&#10;&#9;&#9;&#9;c-23.8,10.8-39.3-12.9-45.4-36.8c-6.5,27.8-29.2,51.1-59.6,35.7c-18.7-9.5-22.7-43.9-25.3-61.6c-4.8-32.5-8.1-65.8-5.1-98.6&#10;&#9;&#9;&#9;c0.2-2.2,3.6-3,4.1-0.6c8.2,38.2,7.2,77.6,14.7,115.9c5.1-8.2,10.7-15.6,14.4-25c4.7-11.9,7.4-24.5,12.1-36.4&#10;&#9;&#9;&#9;c1.7-4.4,8.1-3.8,8.3,1.1c1.2,26.2,13.5,50.5,16.2,76.5c0.2,1.5-2.2,2.1-2.8,0.8c-5.5-12-9-24.9-12.6-37.6&#10;&#9;&#9;&#9;c-1.6-5.9-3.7-11.9-5.5-17.9c-4.4,19.5-11.1,41.2-28.1,48.1c1.4,6.7,2.8,13.4,5.5,19.7c7.8,18.1,29.7,14.6,41.6,4.1&#10;&#9;&#9;&#9;c17.2-15,11.7-39.8,15.3-59.6c0.6-3.1,4.8-2.5,5.7,0c0.2,0.7,0.4,1.4,0.7,2.1c1.3-0.3,2.9,0.5,2.8,2.1c-0.6,17.2,4,32.9,13.1,47.3&#10;&#9;&#9;&#9;c18.6,29.4,41.3-5.6,49.9-21.4c12-21.9,17-51.2,33.7-69.8c1.5-1.6,4.1-0.3,4.1,1.7c0.2,7.7-1.5,15.5-4,23.1&#10;&#9;&#9;&#9;c-5.7,46.7-12.9,93.2-20.7,139.5c-0.3,1.9-1.8,3.3-3.5,4.1c0,7.9-1.4,15.6-2.9,23.3c-0.6,3-1.1,6.3-1.9,9.4&#10;&#9;&#9;&#9;c2.8-0.5,5.6-0.8,8.4-0.6c1.7,0.1,3.3,2.1,2.1,3.7c-6.6,9.5-17.5,13.3-28,17.6c-17,6.9-34.7,11.3-52.7,14.6&#10;&#9;&#9;&#9;c-16.9,3.1-34.1,4.4-51.2,5.5c-12.9,0.8-30.3,5.1-42-1.6C254.1,411.2,254.5,406.6,257.6,404.4z" style="fill: rgb(204, 204, 204); opacity: 1;"/>
		<radialGradient id="SVGID_71_" cx="273.5888" cy="301.7657" r="27.7098" gradientUnits="userSpaceOnUse">
			<stop offset="0" style="stop-color:#FFF200"/>
			<stop offset="1" style="stop-color:#F47721"/>
		</radialGradient>
		<path class="st70" d="M256.9,330.4c3.1-5.8,7.5-10,12.2-14.7c5.9-5.9,13.2-9,8.4-18c-5.2-9.6-16.4-18.3-16.7-29.6&#10;&#9;&#9;&#9;c0-1,1-1.8,1.9-1.5c14.6,4.7,23.3,26.2,27.9,39.4c0.6,1.6-0.1,3.5-1.2,4.7c-8.4,8.5-16.7,18.9-26.6,25.5&#10;&#9;&#9;&#9;C258.9,338.8,255,334,256.9,330.4z" style="fill: rgb(204, 204, 204); opacity: 1;"/>
		<radialGradient id="SVGID_72_" cx="353.168" cy="305.6194" r="25.7565" gradientUnits="userSpaceOnUse">
			<stop offset="0" style="stop-color:#FFF200"/>
			<stop offset="1" style="stop-color:#F47721"/>
		</radialGradient>
		<path class="st71" d="M335.2,318.5c6.6,3.4,10.3,8.9,14.2,15c1.9,3,6.2,3,8.1,0c4.9-7.8,10.2-15.4,15.5-22.9&#10;&#9;&#9;&#9;c0.9-1.2,0.8-3.2,0-4.5c-6.3-10-11-21.3-19.2-29.9c-0.4-0.4-0.9-0.5-1.3-0.5c-1.5-0.6-3.6-0.2-4.5,1.2c-7,10.6-10.4,24.2-15,36.1&#10;&#9;&#9;&#9;C332.2,315,333.4,317.5,335.2,318.5z M343.5,312.2c3.4-9,7.4-18.1,9.6-27.4c2.9,8,7.3,15.4,11,23.1c-3.6,4.8-7.1,9.7-10.5,14.7&#10;&#9;&#9;&#9;C350.7,318.6,347.6,315,343.5,312.2z" style="fill: rgb(204, 204, 204); opacity: 1;"/>
		<radialGradient id="SVGID_73_" cx="386.2235" cy="214.3384" r="33.4659" gradientUnits="userSpaceOnUse">
			<stop offset="0" style="stop-color:#FFF200"/>
			<stop offset="1" style="stop-color:#F47721"/>
		</radialGradient>
		<path class="st72" d="M362.3,250.8c11.8-24.5,22-49.8,33-74.7c2.3-5.3,10.1-1.4,8.9,3.8c-0.6,2.5,2.4,10.3,3.2,13&#10;&#9;&#9;&#9;c1.6,5.2,1,11.4,1.3,16.7c0.7,12.4,1.1,24.8,1.5,37.2c0.1,2.6-4.2,3.2-4.6,0.6c-1.7-12.6-3.5-25.2-4.8-37.8&#10;&#9;&#9;&#9;c-0.5-4.4-1.9-8.9-3.3-13.3c-4.3,10.5-8.6,21.1-13,31.5c-4.5,10.8-7.3,22.7-19.2,27C363,255.8,361.4,252.8,362.3,250.8z" style="fill: rgb(204, 204, 204); opacity: 1;"/>
		<radialGradient id="SVGID_74_" cx="386.2387" cy="366.085" r="9.5943" gradientUnits="userSpaceOnUse">
			<stop offset="0" style="stop-color:#FFF200"/>
			<stop offset="1" style="stop-color:#F47721"/>
		</radialGradient>
		<path class="st73" d="M386.2,356.5c5.2,0,9.6,4.4,9.6,9.6c0,5.2-4.4,9.6-9.6,9.6c-5.2,0-9.6-4.4-9.6-9.6&#10;&#9;&#9;&#9;C376.6,360.9,381,356.5,386.2,356.5z" style="fill: rgb(204, 204, 204); opacity: 1;"/>
		<radialGradient id="SVGID_75_" cx="335.0044" cy="375.6787" r="9.5943" gradientUnits="userSpaceOnUse">
			<stop offset="0" style="stop-color:#FFF200"/>
			<stop offset="1" style="stop-color:#F47721"/>
		</radialGradient>
		<path class="st74" d="M335,366.1c5.2,0,9.6,4.4,9.6,9.6c0,5.2-4.4,9.6-9.6,9.6s-9.6-4.4-9.6-9.6&#10;&#9;&#9;&#9;C325.4,370.4,329.8,366.1,335,366.1z" style="fill: rgb(204, 204, 204); opacity: 1;"/>
		<radialGradient id="SVGID_76_" cx="266.4035" cy="383.6201" r="9.5943" gradientUnits="userSpaceOnUse">
			<stop offset="0" style="stop-color:#FFF200"/>
			<stop offset="1" style="stop-color:#F47721"/>
		</radialGradient>
		<path class="st75" d="M266.4,374c5.2,0,9.6,4.4,9.6,9.6c0,5.2-4.4,9.6-9.6,9.6s-9.6-4.4-9.6-9.6C256.8,378.4,261.2,374,266.4,374z&#10;&#9;&#9;&#9;" style="fill: rgb(204, 204, 204); opacity: 1;"/>
	</g></svg>